<?xml version="1.0" encoding="UTF-8" standalone="no"?>
<!DOCTYPE svg PUBLIC "-//W3C//DTD SVG 1.1//EN" "http://www.w3.org/Graphics/SVG/1.1/DTD/svg11.dtd">
<svg width="100%" height="100%" viewBox="0 0 1860 1860" version="1.1" xmlns="http://www.w3.org/2000/svg" xmlns:xlink="http://www.w3.org/1999/xlink" xml:space="preserve" xmlns:serif="http://www.serif.com/" style="fill-rule:evenodd;clip-rule:evenodd;stroke-linejoin:round;stroke-miterlimit:2;">
    <g transform="matrix(1,0,0,1,-94,-94)">
        <g transform="matrix(3.34249,0,0,1.35237,-2297.78,-711.962)">
            <g transform="matrix(0.396732,0,0,0.980555,587.55,279.556)">
                <g id="Z">
                    <path d="M1632.89,322.767L415.11,322.767C364.145,322.767 322.767,364.145 322.767,415.11L322.767,599.795C322.767,650.76 364.145,692.137 415.11,692.137L1038.8,692.137L355.578,1375.36C348.705,1382.23 342.912,1389.78 338.201,1397.79C328.453,1412.4 322.767,1429.95 322.767,1448.82L322.767,1633.1C322.767,1683.95 364.053,1725.23 414.905,1725.23L1633.1,1725.23C1683.95,1725.23 1725.23,1683.95 1725.23,1633.1L1725.23,1448.82C1725.23,1397.97 1683.95,1356.68 1633.1,1356.68L1008.38,1356.68L1692.42,672.64C1697.64,667.421 1702.24,661.813 1706.21,655.912C1718.14,640.35 1725.23,620.894 1725.23,599.795L1725.23,415.11C1725.23,364.145 1683.86,322.767 1632.89,322.767Z" />
                </g>
            </g>
        </g>
    </g>
</svg>
